<?xml version="1.0" encoding="iso-8859-1"?>
<!-- Generator: Adobe Illustrator 18.0.0, SVG Export Plug-In . SVG Version: 6.00 Build 0)  -->
<!DOCTYPE svg PUBLIC "-//W3C//DTD SVG 1.1//EN" "http://www.w3.org/Graphics/SVG/1.1/DTD/svg11.dtd">
<svg version="1.1" id="Capa_1" xmlns="http://www.w3.org/2000/svg" xmlns:xlink="http://www.w3.org/1999/xlink" x="0px" y="0px"
	 viewBox="0 0 495.307 495.307" style="enable-background:new 0 0 495.307 495.307;" xml:space="preserve">
<g>
	<path d="M454.211,33.394H41.096C18.43,33.394,0,51.826,0,74.483v241.4c0,22.652,18.43,41.085,41.096,41.085h135.6v25.517
		c-26.117,2.82-46.605,24.748-46.605,51.604v15.302c0,6.912,5.609,12.522,12.522,12.522h210.082c6.912,0,12.522-5.609,12.522-12.522
		v-15.302c0-26.855-20.486-48.783-46.605-51.604v-25.517h135.6c22.663,0,41.096-18.433,41.096-41.085v-241.4
		C495.307,51.826,476.874,33.394,454.211,33.394z M340.173,434.089v2.779H155.134v-2.779c0-14.961,12.166-27.122,27.123-27.122
		H313.05C328.008,406.967,340.173,419.128,340.173,434.089z M461.916,315.883c0,4.247-3.458,7.695-7.705,7.695H41.096
		c-4.251,0-7.705-3.448-7.705-7.695v-241.4c0-4.247,3.454-7.699,7.705-7.699h413.115c4.247,0,7.705,3.452,7.705,7.699V315.883z"/>
	<path d="M172.523,213.616h-47.298c-4.419,0-7.997,3.578-7.997,7.997v47.299c0,4.426,3.578,8.004,7.997,8.004h47.298
		c4.426,0,8.004-3.578,8.004-8.004v-47.299C180.527,217.194,176.949,213.616,172.523,213.616z"/>
	<path d="M272.695,213.616h-47.298c-4.419,0-7.997,3.578-7.997,7.997v47.299c0,4.426,3.578,8.004,7.997,8.004h47.298
		c4.43,0,8.008-3.578,8.008-8.004v-47.299C280.703,217.194,277.125,213.616,272.695,213.616z"/>
	<path d="M172.523,113.441h-47.298c-4.419,0-7.997,3.579-7.997,7.997v47.298c0,4.426,3.578,8.008,7.997,8.008h47.298
		c4.426,0,8.004-3.582,8.004-8.008v-47.298C180.527,117.02,176.949,113.441,172.523,113.441z"/>
	<path d="M272.695,113.441h-47.298c-4.419,0-7.997,3.579-7.997,7.997v47.298c0,4.426,3.578,8.008,7.997,8.008h47.298
		c4.43,0,8.008-3.582,8.008-8.008v-47.298C280.703,117.02,277.125,113.441,272.695,113.441z"/>
	<path d="M372.87,213.616h-47.298c-4.419,0-7.997,3.578-7.997,7.997v47.299c0,4.426,3.578,8.004,7.997,8.004h47.298
		c4.426,0,8.004-3.578,8.004-8.004v-47.299C380.874,217.194,377.296,213.616,372.87,213.616z"/>
</g>
<g>
</g>
<g>
</g>
<g>
</g>
<g>
</g>
<g>
</g>
<g>
</g>
<g>
</g>
<g>
</g>
<g>
</g>
<g>
</g>
<g>
</g>
<g>
</g>
<g>
</g>
<g>
</g>
<g>
</g>
</svg>
